# xmcd
#
# Track frame offsets: 
#        150
#        18636
#        45486
#
# Disc length: 904 seconds
#
# Revision: 0
# Processed by: cddbd v1.5.2PL0 Copyright (c) Steve Scherf et al.
# Submitted via: ExactAudioCopy v0.99pb4
#
DISCID=1c038603
DTITLE=Hawk and Dove - Rocking Chair EP
DYEAR=2008
DGENRE=Country
TTITLE0=furious armies
TTITLE1=satin
TTITLE2=boy on the moon
EXTD=
EXTT0=
EXTT1=
EXTT2=
PLAYORDER=
